#N canvas -8 -8 1920 997 12;
#X obj 885 276 metro;
#X msg 908 135 60000;
#X floatatom 973 137 5 0 0 0 - - -;
#X obj 908 174 /;
#X obj 885 74 t b b b;
#X obj 885 43 bng 15 250 50 0 empty empty empty 17 7 0 10 -262144 -1
-1;
#X floatatom 976 195 5 0 0 0 - - -;
#X obj 908 223 i;
#X floatatom 976 244 5 0 0 0 - - -;
#X msg 822 255 0;
#X msg 1003 79 60;
#X obj 1003 31 loadbang;
#X obj 885 328 i;
#X obj 941 329 + 1;
#X floatatom 831 328 5 0 0 0 - - -;
#X floatatom 885 373 5 0 0 0 - - -;
#X msg 976 284 0;
#X obj 191 866 readsf~;
#X msg 150 846 0;
#X obj 343 774 vsl 15 128 0 1 0 0 empty empty empty 0 -9 0 10 -204800
-1 -1 8900 1;
#X obj 226 905 *~;
#X obj 192 906 *~;
#X obj 183 938 dac~ 1 2;
#X text 860 3 Metranome Control System;
#X text 6 970 Instrument Representation;
#X msg 191 787 open HangTightBeat.wav \, 1;
#X obj 197 472 % 8;
#X floatatom 197 509 5 0 0 0 - - -;
#X obj 197 544 sel 0;
#X obj 197 580 bng 15 250 50 0 empty empty empty 17 7 0 10 -262144
-1 -1;
#X obj 250 727 tgl 15 0 empty empty empty 17 7 0 10 -4032 -1 -1 0 1
;
#X obj 197 712 bng 15 250 50 0 empty empty empty 17 7 0 10 -258113
-1 -1;
#X obj 197 622 spigot 0;
#X obj 442 863 readsf~;
#X msg 401 843 0;
#X obj 594 771 vsl 15 128 0 1 0 0 empty empty empty 0 -9 0 10 -204800
-1 -1 5600 1;
#X obj 477 902 *~;
#X obj 443 903 *~;
#X obj 434 935 dac~ 1 2;
#X floatatom 448 506 5 0 0 0 - - -;
#X obj 448 541 sel 0;
#X obj 448 577 bng 15 250 50 0 empty empty empty 17 7 0 10 -262144
-1 -1;
#X obj 501 724 tgl 15 0 empty empty empty 17 7 0 10 -4032 -1 -1 0 1
;
#X obj 448 709 bng 15 250 50 0 empty empty empty 17 7 0 10 -258113
-1 -1;
#X obj 448 619 spigot 0;
#X obj 702 859 readsf~;
#X msg 661 839 0;
#X obj 854 767 vsl 15 128 0 1 0 0 empty empty empty 0 -9 0 10 -204800
-1 -1 9800 1;
#X obj 737 898 *~;
#X obj 703 899 *~;
#X obj 694 931 dac~ 1 2;
#X floatatom 708 502 5 0 0 0 - - -;
#X obj 708 537 sel 0;
#X obj 708 573 bng 15 250 50 0 empty empty empty 17 7 0 10 -262144
-1 -1;
#X obj 761 720 tgl 15 0 empty empty empty 17 7 0 10 -4032 -1 -1 0 1
;
#X obj 708 705 bng 15 250 50 0 empty empty empty 17 7 0 10 -258113
-1 -1;
#X obj 708 615 spigot 0;
#X obj 953 856 readsf~;
#X msg 912 836 0;
#X obj 1105 764 vsl 15 128 0 1 0 0 empty empty empty 0 -9 0 10 -204800
-1 -1 8300 1;
#X obj 988 895 *~;
#X obj 954 896 *~;
#X obj 945 928 dac~ 1 2;
#X obj 959 462 % 8;
#X floatatom 959 499 5 0 0 0 - - -;
#X obj 959 534 sel 0;
#X obj 959 570 bng 15 250 50 0 empty empty empty 17 7 0 10 -262144
-1 -1;
#X obj 1012 717 tgl 15 0 empty empty empty 17 7 0 10 -4032 -1 -1 0
1;
#X obj 959 702 bng 15 250 50 0 empty empty empty 17 7 0 10 -258113
-1 -1;
#X obj 959 612 spigot 0;
#X obj 1214 856 readsf~;
#X msg 1173 836 0;
#X obj 1366 764 vsl 15 128 0 1 0 0 empty empty empty 0 -9 0 10 -204800
-1 -1 7500 1;
#X obj 1249 895 *~;
#X obj 1215 896 *~;
#X obj 1206 928 dac~ 1 2;
#X obj 1220 462 % 8;
#X floatatom 1220 499 5 0 0 0 - - -;
#X obj 1220 534 sel 0;
#X obj 1220 570 bng 15 250 50 0 empty empty empty 17 7 0 10 -262144
-1 -1;
#X obj 1273 717 tgl 15 0 empty empty empty 17 7 0 10 -4032 -1 -1 0
1;
#X obj 1220 702 bng 15 250 50 0 empty empty empty 17 7 0 10 -258113
-1 -1;
#X obj 1220 612 spigot 0;
#X obj 1465 853 readsf~;
#X msg 1424 833 0;
#X obj 1617 761 vsl 15 128 0 1 0 0 empty empty empty 0 -9 0 10 -204800
-1 -1 6900 1;
#X obj 1500 892 *~;
#X obj 1466 893 *~;
#X obj 1457 925 dac~ 1 2;
#X floatatom 1471 496 5 0 0 0 - - -;
#X obj 1471 531 sel 0;
#X obj 1471 567 bng 15 250 50 0 empty empty empty 17 7 0 10 -262144
-1 -1;
#X obj 1524 714 tgl 15 0 empty empty empty 17 7 0 10 -4032 -1 -1 0
1;
#X obj 1471 699 bng 15 250 50 0 empty empty empty 17 7 0 10 -258113
-1 -1;
#X obj 1471 609 spigot 0;
#X msg 442 784 open FunkBeatTopper.wav \, 1;
#X msg 702 780 open Bass.wav \, 1;
#X msg 953 777 open Guitar.wav \, 1;
#X msg 1465 773 open FunkSwell.wav \, 1;
#X obj 448 469 % 4;
#X obj 708 466 % 8;
#X obj 1471 459 % 4;
#X msg 1214 777 open NewFX.wav \, 1;
#X connect 0 0 12 0;
#X connect 0 0 14 0;
#X connect 1 0 3 0;
#X connect 2 0 3 1;
#X connect 3 0 6 0;
#X connect 3 0 7 0;
#X connect 4 0 0 0;
#X connect 4 1 1 0;
#X connect 4 2 2 0;
#X connect 5 0 4 0;
#X connect 7 0 8 0;
#X connect 7 0 0 1;
#X connect 9 0 0 0;
#X connect 10 0 2 0;
#X connect 11 0 10 0;
#X connect 12 0 13 0;
#X connect 12 0 15 0;
#X connect 13 0 12 1;
#X connect 15 0 26 0;
#X connect 15 0 99 0;
#X connect 15 0 100 0;
#X connect 15 0 63 0;
#X connect 15 0 76 0;
#X connect 15 0 101 0;
#X connect 16 0 12 1;
#X connect 17 0 21 0;
#X connect 17 0 20 0;
#X connect 17 1 25 0;
#X connect 18 0 17 0;
#X connect 19 0 21 1;
#X connect 19 0 20 1;
#X connect 20 0 22 1;
#X connect 21 0 22 0;
#X connect 25 0 17 0;
#X connect 26 0 27 0;
#X connect 27 0 28 0;
#X connect 28 0 29 0;
#X connect 29 0 32 0;
#X connect 30 0 32 1;
#X connect 31 0 30 0;
#X connect 31 0 25 0;
#X connect 32 0 31 0;
#X connect 33 0 37 0;
#X connect 33 0 36 0;
#X connect 33 1 95 0;
#X connect 34 0 33 0;
#X connect 35 0 37 1;
#X connect 35 0 36 1;
#X connect 36 0 38 1;
#X connect 37 0 38 0;
#X connect 39 0 40 0;
#X connect 40 0 41 0;
#X connect 41 0 44 0;
#X connect 42 0 44 1;
#X connect 43 0 42 0;
#X connect 43 0 95 0;
#X connect 44 0 43 0;
#X connect 45 0 49 0;
#X connect 45 0 48 0;
#X connect 45 1 96 0;
#X connect 46 0 45 0;
#X connect 47 0 49 1;
#X connect 47 0 48 1;
#X connect 48 0 50 1;
#X connect 49 0 50 0;
#X connect 51 0 52 0;
#X connect 52 0 53 0;
#X connect 53 0 56 0;
#X connect 54 0 56 1;
#X connect 55 0 54 0;
#X connect 55 0 96 0;
#X connect 56 0 55 0;
#X connect 57 0 61 0;
#X connect 57 0 60 0;
#X connect 57 1 97 0;
#X connect 58 0 57 0;
#X connect 59 0 61 1;
#X connect 59 0 60 1;
#X connect 60 0 62 1;
#X connect 61 0 62 0;
#X connect 63 0 64 0;
#X connect 64 0 65 0;
#X connect 65 0 66 0;
#X connect 66 0 69 0;
#X connect 67 0 69 1;
#X connect 68 0 67 0;
#X connect 68 0 97 0;
#X connect 69 0 68 0;
#X connect 70 0 74 0;
#X connect 70 0 73 0;
#X connect 70 1 102 0;
#X connect 71 0 70 0;
#X connect 72 0 74 1;
#X connect 72 0 73 1;
#X connect 73 0 75 1;
#X connect 74 0 75 0;
#X connect 76 0 77 0;
#X connect 77 0 78 0;
#X connect 78 0 79 0;
#X connect 79 0 82 0;
#X connect 80 0 82 1;
#X connect 81 0 80 0;
#X connect 81 0 102 0;
#X connect 82 0 81 0;
#X connect 83 0 87 0;
#X connect 83 0 86 0;
#X connect 83 1 98 0;
#X connect 84 0 83 0;
#X connect 85 0 87 1;
#X connect 85 0 86 1;
#X connect 86 0 88 1;
#X connect 87 0 88 0;
#X connect 89 0 90 0;
#X connect 90 0 91 0;
#X connect 91 0 94 0;
#X connect 92 0 94 1;
#X connect 93 0 92 0;
#X connect 93 0 98 0;
#X connect 94 0 93 0;
#X connect 95 0 33 0;
#X connect 96 0 45 0;
#X connect 97 0 57 0;
#X connect 98 0 83 0;
#X connect 99 0 39 0;
#X connect 100 0 51 0;
#X connect 101 0 89 0;
#X connect 102 0 70 0;
