#N canvas -9 -9 1920 976 12;
#X obj 260 674 bng 15 250 50 0 empty empty empty 17 7 0 10 -262144
-1 -1;
#X obj 186 614 readsf~ 2;
#X obj 184 516 trigger b b;
#X obj 202 710 dac~;
#X msg 90 572 stop;
#X msg 167 568 start;
#X obj 49 333 change;
#X obj 567 718 bng 15 250 50 0 empty empty empty 17 7 0 10 -262144
-1 -1;
#X obj 493 658 readsf~ 2;
#X obj 491 560 trigger b b;
#X obj 509 754 dac~;
#X msg 397 616 stop;
#X msg 474 612 start;
#X obj 838 606 bng 15 250 50 0 empty empty empty 17 7 0 10 -262144
-1 -1;
#X obj 764 546 readsf~ 2;
#X obj 762 448 trigger b b;
#X obj 780 642 dac~;
#X msg 668 504 stop;
#X msg 745 500 start;
#X obj 651 327 change;
#X obj 1183 632 bng 15 250 50 0 empty empty empty 17 7 0 10 -262144
-1 -1;
#X obj 1109 572 readsf~ 2;
#X obj 1107 474 trigger b b;
#X obj 1125 668 dac~;
#X msg 1013 530 stop;
#X msg 1090 526 start;
#X obj 996 353 change;
#X obj 1514 661 bng 15 250 50 0 empty empty empty 17 7 0 10 -262144
-1 -1;
#X obj 1440 601 readsf~ 2;
#X obj 1438 503 trigger b b;
#X obj 1456 697 dac~;
#X msg 1344 559 stop;
#X msg 1421 555 start;
#X obj 1327 382 change;
#X msg 236 569 open Guitar1.wav;
#X msg 543 613 open Guitar3.wav;
#X msg 814 501 open Guitar4.wav;
#X msg 1159 527 open Guitar5.wav;
#X obj 779 1080 bng 15 250 50 0 empty empty empty 17 7 0 10 -262144
-1 -1;
#X obj 705 1020 readsf~ 2;
#X obj 703 922 trigger b b;
#X obj 721 1116 dac~;
#X msg 609 978 stop;
#X msg 686 974 start;
#X obj 703 870 bng 15 250 50 0 empty empty empty 17 7 0 10 -262144
-1 -1;
#X msg 1490 556 open Guitar7.wav;
#X msg 755 975 open blue_og.wav;
#X obj 676 364 select 1;
#X obj 1046 408 select 1;
#X obj 1362 431 select 1;
#X msg 218 101 devices;
#X msg 218 11 close;
#X msg 217 44 open 16;
#X floatatom 241 184 5 0 0 0 - - -;
#X obj 496 334 bng 15 250 50 0 empty empty empty 17 7 0 10 -262144
-1 -1;
#X obj 386 208 == 52;
#X obj 411 261 change;
#X obj 482 293 select 1;
#X obj 52 394 select 1;
#X obj 93 242 == 49;
#X obj 129 463 bng 15 250 50 0 empty empty empty 17 7 0 10 -262144
-1 -1;
#X obj 650 287 == 51;
#X obj 995 313 == 50;
#X obj 1326 342 == 53;
#X obj 220 153 comport 16 115200;
#X connect 1 0 3 0;
#X connect 1 1 3 1;
#X connect 1 2 0 0;
#X connect 2 0 5 0;
#X connect 2 1 34 0;
#X connect 4 0 1 0;
#X connect 5 0 1 0;
#X connect 6 0 58 0;
#X connect 8 0 10 0;
#X connect 8 1 10 1;
#X connect 8 2 7 0;
#X connect 9 0 12 0;
#X connect 9 1 35 0;
#X connect 11 0 8 0;
#X connect 12 0 8 0;
#X connect 14 0 16 0;
#X connect 14 1 16 1;
#X connect 14 2 13 0;
#X connect 15 0 18 0;
#X connect 15 1 36 0;
#X connect 17 0 14 0;
#X connect 18 0 14 0;
#X connect 19 0 47 0;
#X connect 21 0 23 0;
#X connect 21 1 23 1;
#X connect 21 2 20 0;
#X connect 22 0 25 0;
#X connect 22 1 37 0;
#X connect 24 0 21 0;
#X connect 25 0 21 0;
#X connect 26 0 48 0;
#X connect 28 0 30 0;
#X connect 28 1 30 1;
#X connect 28 2 27 0;
#X connect 29 0 32 0;
#X connect 29 1 45 0;
#X connect 31 0 28 0;
#X connect 32 0 28 0;
#X connect 33 0 49 0;
#X connect 34 0 1 0;
#X connect 35 0 8 0;
#X connect 36 0 14 0;
#X connect 37 0 21 0;
#X connect 39 0 41 0;
#X connect 39 1 41 1;
#X connect 39 2 38 0;
#X connect 40 0 43 0;
#X connect 40 1 46 0;
#X connect 42 0 39 0;
#X connect 43 0 39 0;
#X connect 44 0 40 0;
#X connect 45 0 28 0;
#X connect 46 0 39 0;
#X connect 47 0 15 0;
#X connect 48 0 22 0;
#X connect 49 0 29 0;
#X connect 50 0 64 0;
#X connect 51 0 52 0;
#X connect 52 0 50 0;
#X connect 53 0 55 0;
#X connect 53 0 59 0;
#X connect 53 0 61 0;
#X connect 53 0 62 0;
#X connect 53 0 63 0;
#X connect 54 0 9 0;
#X connect 55 0 56 0;
#X connect 56 0 57 0;
#X connect 57 0 54 0;
#X connect 58 0 60 0;
#X connect 59 0 6 0;
#X connect 60 0 2 0;
#X connect 61 0 19 0;
#X connect 62 0 26 0;
#X connect 63 0 33 0;
#X connect 64 0 53 0;
