#N canvas 1912 -8 1920 997 12;
#X obj 390 682 bng 15 250 50 0 empty empty empty 17 7 0 10 -262144
-1 -1;
#X obj 316 622 readsf~ 2;
#X obj 314 524 trigger b b;
#X obj 332 718 dac~;
#X msg 220 580 stop;
#X msg 297 576 start;
#X obj 314 472 bng 15 250 50 0 empty empty empty 17 7 0 10 -262144
-1 -1;
#X obj 865 176 loadbang;
#X obj 865 276 s bela_setDigital;
#X obj 24 335 r bela_digitalIn11;
#X obj 203 403 change;
#X obj 203 445 bang;
#X obj 202 363 <= 0;
#X obj 870 687 bng 15 250 50 0 empty empty empty 17 7 0 10 -262144
-1 -1;
#X obj 796 627 readsf~ 2;
#X obj 794 529 trigger b b;
#X obj 812 723 dac~;
#X msg 700 585 stop;
#X msg 777 581 start;
#X obj 794 477 bng 15 250 50 0 empty empty empty 17 7 0 10 -262144
-1 -1;
#X obj 683 408 change;
#X obj 683 450 bang;
#X obj 682 368 <= 0;
#X obj 1330 693 bng 15 250 50 0 empty empty empty 17 7 0 10 -262144
-1 -1;
#X obj 1256 633 readsf~ 2;
#X obj 1254 535 trigger b b;
#X obj 1272 729 dac~;
#X msg 1160 591 stop;
#X msg 1237 587 start;
#X obj 1254 483 bng 15 250 50 0 empty empty empty 17 7 0 10 -262144
-1 -1;
#X obj 1143 414 change;
#X obj 1143 456 bang;
#X obj 1142 374 <= 0;
#X obj 1734 682 bng 15 250 50 0 empty empty empty 17 7 0 10 -262144
-1 -1;
#X obj 1660 622 readsf~ 2;
#X obj 1658 524 trigger b b;
#X obj 1676 718 dac~;
#X msg 1564 580 stop;
#X msg 1641 576 start;
#X obj 1658 472 bng 15 250 50 0 empty empty empty 17 7 0 10 -262144
-1 -1;
#X obj 1547 403 change;
#X obj 1547 445 bang;
#X obj 1546 363 <= 0;
#X obj 1365 1087 bng 15 250 50 0 empty empty empty 17 7 0 10 -262144
-1 -1;
#X obj 1291 1027 readsf~ 2;
#X obj 1289 929 trigger b b;
#X obj 1307 1123 dac~;
#X msg 1195 985 stop;
#X msg 1272 981 start;
#X obj 1289 877 bng 15 250 50 0 empty empty empty 17 7 0 10 -262144
-1 -1;
#X obj 1178 808 change;
#X obj 1178 850 bang;
#X obj 1177 768 <= 0;
#X obj 24 485 print digitalIn11;
#X obj 504 340 r bela_digitalIn12;
#X obj 504 490 print digitalIn12;
#X obj 964 346 r bela_digitalIn13;
#X obj 964 496 print digitalIn13;
#X obj 1368 335 r bela_digitalIn14;
#X obj 1368 485 print digitalIn14;
#X obj 999 740 r bela_digitalIn15;
#X obj 999 890 print digitalIn15;
#X msg 366 577 open Guitar1.wav;
#X msg 846 582 open Guitar3.wav;
#X msg 1306 588 open Guitar4.wav;
#X msg 1710 577 open Guitar5.wav;
#X msg 865 228 in 11 \, in 12 \, in 13 \, in 14 \, in 15;
#X obj 779 1080 bng 15 250 50 0 empty empty empty 17 7 0 10 -262144
-1 -1;
#X obj 705 1020 readsf~ 2;
#X obj 703 922 trigger b b;
#X obj 721 1116 dac~;
#X msg 609 978 stop;
#X msg 686 974 start;
#X obj 703 870 bng 15 250 50 0 empty empty empty 17 7 0 10 -262144
-1 -1;
#X obj 702 820 loadbang;
#X msg 1341 982 open Guitar7.wav;
#X msg 755 975 open blue_og.wav;
#X connect 1 0 3 0;
#X connect 1 1 3 1;
#X connect 1 2 0 0;
#X connect 2 0 5 0;
#X connect 2 1 62 0;
#X connect 4 0 1 0;
#X connect 5 0 1 0;
#X connect 6 0 2 0;
#X connect 7 0 66 0;
#X connect 9 0 12 0;
#X connect 9 0 53 0;
#X connect 10 0 11 0;
#X connect 11 0 6 0;
#X connect 12 0 10 0;
#X connect 14 0 16 0;
#X connect 14 1 16 1;
#X connect 14 2 13 0;
#X connect 15 0 18 0;
#X connect 15 1 63 0;
#X connect 17 0 14 0;
#X connect 18 0 14 0;
#X connect 19 0 15 0;
#X connect 20 0 21 0;
#X connect 21 0 19 0;
#X connect 22 0 20 0;
#X connect 24 0 26 0;
#X connect 24 1 26 1;
#X connect 24 2 23 0;
#X connect 25 0 28 0;
#X connect 25 1 64 0;
#X connect 27 0 24 0;
#X connect 28 0 24 0;
#X connect 29 0 25 0;
#X connect 30 0 31 0;
#X connect 31 0 29 0;
#X connect 32 0 30 0;
#X connect 34 0 36 0;
#X connect 34 1 36 1;
#X connect 34 2 33 0;
#X connect 35 0 38 0;
#X connect 35 1 65 0;
#X connect 37 0 34 0;
#X connect 38 0 34 0;
#X connect 39 0 35 0;
#X connect 40 0 41 0;
#X connect 41 0 39 0;
#X connect 42 0 40 0;
#X connect 44 0 46 0;
#X connect 44 1 46 1;
#X connect 44 2 43 0;
#X connect 45 0 48 0;
#X connect 45 1 75 0;
#X connect 47 0 44 0;
#X connect 48 0 44 0;
#X connect 49 0 45 0;
#X connect 50 0 51 0;
#X connect 51 0 49 0;
#X connect 52 0 50 0;
#X connect 54 0 22 0;
#X connect 54 0 55 0;
#X connect 56 0 32 0;
#X connect 56 0 57 0;
#X connect 58 0 42 0;
#X connect 58 0 59 0;
#X connect 60 0 52 0;
#X connect 60 0 61 0;
#X connect 62 0 1 0;
#X connect 63 0 14 0;
#X connect 64 0 24 0;
#X connect 65 0 34 0;
#X connect 66 0 8 0;
#X connect 68 0 70 0;
#X connect 68 1 70 1;
#X connect 68 2 67 0;
#X connect 69 0 72 0;
#X connect 69 1 76 0;
#X connect 71 0 68 0;
#X connect 72 0 68 0;
#X connect 73 0 69 0;
#X connect 74 0 73 0;
#X connect 75 0 44 0;
#X connect 76 0 68 0;
