#N canvas -8 -8 1920 997 10;
#X obj 614 345 tgl 25 0 empty empty empty 17 7 0 25 -262144 -1 -1 0
1;
#X obj 962 555 *;
#X obj 1010 551 samplerate~;
#X obj 962 531 t f b;
#N canvas 2112 272 813 514 set 0;
#X obj 314 83 inlet;
#X obj 314 205 realtime;
#X obj 314 109 t b b;
#X obj 153 201 +;
#X obj 126 200 f;
#X msg 153 159 1;
#X obj 359 178 spigot;
#X obj 126 285 > 1;
#X obj 618 330 sel 1;
#X msg 126 159 0;
#X obj 642 195 metro 1;
#X obj 642 251 +;
#X obj 618 251 f;
#X msg 642 215 1;
#X msg 614 215 0;
#X obj 172 255 sel 1;
#X obj 642 170 tgl 15 0 empty empty empty 17 7 0 10 -262144 -1 -1 0
1;
#X obj 314 350 +;
#X obj 288 350 f;
#X obj 618 282 spigot;
#X obj 288 402 /;
#X obj 199 361 - 1;
#X obj 315 485 outlet;
#X obj 275 86 bng 15 250 50 0 empty empty empty 17 7 0 10 -262144 -1
-1;
#X floatatom 341 463 12 0 0 0 - - -;
#X obj 126 306 s TAP_not_first;
#X obj 392 156 r TAP_not_first;
#X obj 671 253 r TAP_not_first;
#X obj 172 277 s TAP_start;
#X obj 642 148 r TAP_start;
#X obj 288 439 sel 0;
#X obj 618 311 > 3000;
#X obj 618 351 s TAP_finish;
#X obj 614 125 r TAP_finish;
#X obj 126 136 r TAP_finish;
#X msg 288 329 0;
#X obj 288 306 r TAP_finish;
#X text 500 24 A timer gets triggered and reset every time;
#X text 499 38 the inlet receives a bang. If nothing happens;
#X text 498 53 afterwards for 3000 ms \, the "tempo" is considered
;
#X text 498 68 definitive \, and everything gets reset.;
#X text 498 90 comment;
#X text 12 189 Count the number;
#X text 12 201 of bangs received.;
#X text 385 199 Measure the time between;
#X text 385 212 two bangs (making sure that;
#X text 386 223 we only start measuring at;
#X text 386 235 the second bang).;
#X text 358 342 Sum the measured durations...;
#X text 336 403 ... and divide it by the number of bangs-1;
#X text 336 417 to get the average time between 2 bangs.;
#X text 558 490 Pierre Massat \, Guitar Extended \, 2013;
#X text 6 2 "Tap tempo" : we don't measure the tempo;
#X text 5 16 here \, but the duration between 2 beats (bangs).;
#X text 5 30 This is used later to set the length of the loop.;
#X connect 0 0 2 0;
#X connect 1 0 17 0;
#X connect 2 0 1 0;
#X connect 2 1 5 0;
#X connect 2 1 6 0;
#X connect 2 1 14 0;
#X connect 3 0 4 0;
#X connect 4 0 3 1;
#X connect 4 0 7 0;
#X connect 4 0 21 0;
#X connect 4 0 15 0;
#X connect 5 0 3 0;
#X connect 6 0 1 1;
#X connect 7 0 25 0;
#X connect 8 0 32 0;
#X connect 9 0 4 0;
#X connect 10 0 13 0;
#X connect 11 0 12 0;
#X connect 12 0 11 1;
#X connect 12 0 19 0;
#X connect 13 0 11 0;
#X connect 14 0 12 0;
#X connect 15 0 28 0;
#X connect 16 0 10 0;
#X connect 17 0 18 0;
#X connect 18 0 17 1;
#X connect 18 0 20 0;
#X connect 19 0 31 0;
#X connect 20 0 30 0;
#X connect 21 0 20 1;
#X connect 23 0 2 0;
#X connect 26 0 6 1;
#X connect 27 0 19 1;
#X connect 29 0 16 0;
#X connect 30 1 22 0;
#X connect 30 1 24 0;
#X connect 31 0 8 0;
#X connect 33 0 16 0;
#X connect 34 0 9 0;
#X connect 35 0 18 0;
#X connect 36 0 35 0;
#X restore 962 403 pd set tempo;
#X obj 962 465 * 4;
#X obj 962 371 bng 15 250 50 0 empty empty empty 17 7 0 10 -262144
-1 -1;
#X obj 962 509 / 1000;
#X obj 562 568 r~ main_out;
#X obj 562 599 +~;
#X obj 569 444 *~;
#X obj 614 450 line~;
#X obj 614 431 pack 0 5;
#X obj 984 665 r loop_on_off;
#X text 607 317 Record;
#N canvas 330 257 450 300 into_blocks 0;
#X obj 173 101 % 64;
#X obj 146 81 t f f;
#X obj 146 121 -;
#X obj 146 59 int;
#X obj 146 17 inlet;
#X obj 146 167 outlet;
#X text 238 67 to be a multiple of the block size.;
#X text 238 49 Force the length of the tables;
#X text 134 261 Pierre Massat \, Guitar extended \, 2013;
#X connect 0 0 2 1;
#X connect 1 0 2 0;
#X connect 1 1 0 0;
#X connect 2 0 5 0;
#X connect 3 0 1 0;
#X connect 4 0 3 0;
#X restore 962 577 pd into_blocks;
#X obj 962 602 s new_length;
#X obj 1351 534 r new_length;
#X obj 1063 821 spigot;
#X obj 984 725 sel 1 0;
#X msg 984 758 bang;
#X msg 1018 757 stop;
#X obj 982 837 s~ main_out;
#X obj 1351 604 r empty_table;
#X obj 1279 394 t f f;
#X obj 1279 438 s loop_on_off;
#X obj 984 705 t f f;
#X obj 1083 800 s stop_looping;
#X obj 630 618 r stop_looping;
#X obj 1063 850 s new_cycle;
#X obj 649 639 r new_cycle;
#X obj 562 660 tabwrite~ bande;
#X obj 982 799 tabplay~ bande;
#X obj 1351 676 table bande;
#X obj 1109 372 bng 15 250 50 0 empty empty empty 17 7 0 10 -262144
-1 -1;
#X obj 1109 448 s empty_table;
#X text 950 328 Tempo;
#X obj 984 685 tgl 15 0 empty empty empty 17 7 0 10 -262144 -1 -1 1
1;
#X text 1202 926 Pierre Massat \, Guitar Extended \, 2013;
#X text 1066 745 Here we play the table (loop) continuously.;
#X text 546 694 This is where the recording happens.;
#X text 813 393 Get the duration between;
#X text 813 405 two beats...;
#X text 814 437 ... divide it by 4 (we;
#X text 814 450 assume that there are 4;
#X text 814 462 beats in a bar)...;
#X text 792 522 ...and compute the length;
#X text 792 536 of the table in samples \, as;
#X text 793 563 block size.;
#X text 793 551 a multiple of the;
#X obj 1279 374 tgl 15 0 empty empty empty 17 7 0 10 -262144 -1 -1
1 1;
#X obj 870 864 dac~;
#X msg 953 665 1;
#X obj 1109 392 t b b;
#X obj 1109 415 del 2;
#X text 1250 325 Audio On/Off;
#X text 1099 328 Clear;
#X obj 953 641 r new_length;
#X obj 565 870 soundfiler;
#X obj 565 830 savepanel;
#X obj 565 812 bng 15 250 50 0 empty empty empty 17 7 0 10 -262144
-1 -1;
#X msg 565 850 write -wave \$1.wav bande;
#X text 531 774 And if you really happy with your loop \,;
#X text 531 788 save it as a .wav file !;
#X obj 1306 419 switch~;
#N canvas 175 136 691 422 reverse 0;
#X obj 120 109 bng 15 250 50 0 empty empty Reverse_me 18 7 0 8 -262144
-1 -1;
#X obj 120 200 until;
#X obj 186 228 + 1;
#X obj 154 228 f;
#X obj 145 176 s \$1-length;
#X obj 323 335 table tempArray;
#X obj 120 152 t f f f;
#X obj 244 196 s tempArray;
#X msg 244 172 resize \$1;
#X obj 75 308 tabwrite tempArray;
#X obj 520 51 sel;
#X obj 596 41 - 1;
#X obj 596 17 r \$1-length;
#X obj 154 254 t f f f;
#X obj 67 278 s \$1-eof;
#X obj 520 18 r \$1-eof;
#X obj 520 123 until;
#X obj 520 98 f;
#X obj 520 156 f;
#X obj 552 156 - 1;
#X obj 571 103 r \$1-length;
#X obj 539 74 r \$1-length;
#X obj 520 208 tabread tempArray;
#X obj 584 255 f;
#X obj 603 231 r \$1-length;
#X obj 584 304 mod;
#X obj 603 279 r \$1-length;
#X obj 614 255 + 1;
#X obj 520 181 t f b;
#X obj 571 126 - 1;
#X text 53 335 Copies array to a temporary location.;
#X msg 337 124 0;
#X obj 337 148 s clr2;
#X obj 463 110 r clr2;
#X obj 173 200 r clr2;
#X obj 120 128 arraysize bande;
#X obj 179 281 tabread bande;
#X obj 520 335 tabwrite bande;
#X obj 120 42 inlet;
#X obj 471 368 sel 0;
#X text 515 377 Bang when done copying;
#X obj 471 390 outlet;
#X text 206 396 (Taken and adapted from Pd's help);
#X connect 0 0 31 0;
#X connect 0 0 35 0;
#X connect 1 0 3 0;
#X connect 2 0 3 1;
#X connect 3 0 2 0;
#X connect 3 0 13 0;
#X connect 6 0 1 0;
#X connect 6 1 4 0;
#X connect 6 2 8 0;
#X connect 8 0 7 0;
#X connect 10 0 17 0;
#X connect 11 0 10 1;
#X connect 12 0 11 0;
#X connect 13 0 14 0;
#X connect 13 1 36 0;
#X connect 13 2 9 1;
#X connect 15 0 10 0;
#X connect 16 0 18 0;
#X connect 17 0 16 0;
#X connect 18 0 19 0;
#X connect 18 0 28 0;
#X connect 19 0 18 1;
#X connect 20 0 29 0;
#X connect 21 0 17 1;
#X connect 22 0 37 0;
#X connect 23 0 25 0;
#X connect 23 0 27 0;
#X connect 24 0 23 1;
#X connect 25 0 37 1;
#X connect 26 0 25 1;
#X connect 27 0 23 1;
#X connect 28 0 22 0;
#X connect 28 0 39 0;
#X connect 28 1 23 0;
#X connect 29 0 18 1;
#X connect 31 0 32 0;
#X connect 33 0 18 1;
#X connect 34 0 3 1;
#X connect 35 0 6 0;
#X connect 36 0 9 0;
#X connect 38 0 0 0;
#X connect 39 0 41 0;
#X restore 1397 832 pd reverse;
#X obj 1397 769 bng 15 250 50 0 empty empty empty 17 7 0 10 -262144
-1 -1;
#X msg 1351 626 \; bande const 0 \;;
#X msg 1351 554 \; bande resize \$1 \;;
#X obj 1397 790 t b b;
#X obj 870 820 *~;
#X obj 885 799 line~;
#X obj 885 779 pack 0 5;
#X msg 1427 856 0;
#X obj 1397 810 del 5;
#X msg 1397 856 1;
#X obj 869 730 r~ main_out;
#X obj 1397 884 s vol-output;
#X obj 885 758 r vol-output;
#X text 1380 746 Reverse it !!!;
#X obj 1255 460 s vol-output;
#X obj 207 377 bng 15 250 50 0 empty empty empty 17 7 0 10 -262144
-1 -1;
#X obj 147 301 readsf~ 2;
#X obj 147 186 trigger b b;
#X obj 147 373 dac~;
#X msg 53 229 stop;
#X msg 147 233 start;
#X obj 1067 367 bng 15 250 50 0 empty empty empty 17 7 0 10 -262144
-1 -1;
#X obj 1007 316 readsf~ 2;
#X obj 1007 185 trigger b b;
#X obj 1008 363 dac~;
#X msg 952 249 stop;
#X msg 1007 247 start;
#X obj 758 291 bng 15 250 50 0 empty empty empty 17 7 0 10 -262144
-1 -1;
#X obj 698 245 readsf~ 2;
#X obj 698 123 trigger b b;
#X obj 698 288 dac~;
#X msg 630 177 stop;
#X msg 698 175 start;
#X obj 446 305 bng 15 250 50 0 empty empty empty 17 7 0 10 -262144
-1 -1;
#X obj 386 242 readsf~ 2;
#X obj 386 126 trigger b b;
#X obj 387 298 dac~;
#X msg 323 171 stop;
#X msg 386 171 start;
#X obj 1461 287 bng 15 250 50 0 empty empty empty 17 7 0 10 -262144
-1 -1;
#X obj 1401 232 readsf~ 2;
#X obj 1401 113 trigger b b;
#X obj 1400 286 dac~;
#X msg 1329 167 stop;
#X msg 1401 169 start;
#X obj 1372 90 bng 15 250 50 0 empty empty empty 17 7 0 10 -262144
-1 -1;
#X obj -136 867 bng 15 250 50 0 empty empty empty 17 7 0 10 -262144
-1 -1;
#X obj -196 791 readsf~ 2;
#X obj -196 676 trigger b b;
#X obj -196 863 dac~;
#X msg -290 719 stop;
#X msg -196 723 start;
#X obj 415 781 bng 15 250 50 0 empty empty empty 17 7 0 10 -262144
-1 -1;
#X obj 355 735 readsf~ 2;
#X obj 355 613 trigger b b;
#X obj 355 778 dac~;
#X msg 287 667 stop;
#X msg 355 665 start;
#X obj 103 795 bng 15 250 50 0 empty empty empty 17 7 0 10 -262144
-1 -1;
#X obj 43 732 readsf~ 2;
#X obj 43 616 trigger b b;
#X obj 44 788 dac~;
#X msg -20 661 stop;
#X msg 43 661 start;
#X msg -122 736 open D.wav;
#X msg 117 665 open F.wav;
#X msg 429 668 open C.wav;
#X obj -232 362 key;
#X obj -234 465 sel 97;
#X obj 37 461 key;
#X obj 354 458 key;
#X obj 87 52 key;
#X obj 327 13 key;
#X obj 637 15 key;
#X obj 912 34 key;
#X obj 529 211 key;
#X obj 527 314 sel 49;
#X obj 35 564 sel 98;
#X obj 356 551 sel 99;
#X obj 115 133 sel 100;
#X obj 325 116 sel 101;
#X obj 657 62 sel 102;
#X obj 910 137 sel 103;
#X msg 223 246 open kick.wav;
#X msg 461 173 open chord5.wav;
#X msg 772 178 open chord6.wav;
#X msg 1475 164 open chord2.wav;
#X msg 1081 245 open chord2.wav;
#X connect 0 0 12 0;
#X connect 1 0 15 0;
#X connect 2 0 1 1;
#X connect 3 0 1 0;
#X connect 3 1 2 0;
#X connect 4 0 5 0;
#X connect 5 0 7 0;
#X connect 6 0 4 0;
#X connect 7 0 3 0;
#X connect 8 0 9 0;
#X connect 9 0 31 0;
#X connect 10 0 9 1;
#X connect 11 0 10 1;
#X connect 12 0 11 0;
#X connect 13 0 37 0;
#X connect 15 0 16 0;
#X connect 17 0 68 0;
#X connect 18 0 29 0;
#X connect 18 0 32 0;
#X connect 19 0 20 0;
#X connect 19 1 21 0;
#X connect 20 0 29 0;
#X connect 20 0 32 0;
#X connect 21 0 27 0;
#X connect 21 0 32 0;
#X connect 23 0 67 0;
#X connect 24 0 25 0;
#X connect 24 0 80 0;
#X connect 24 1 64 0;
#X connect 26 0 19 0;
#X connect 26 1 18 1;
#X connect 28 0 31 0;
#X connect 30 0 31 0;
#X connect 32 0 22 0;
#X connect 32 1 18 0;
#X connect 34 0 53 0;
#X connect 37 0 26 0;
#X connect 50 0 24 0;
#X connect 52 0 37 0;
#X connect 53 0 54 0;
#X connect 53 1 35 0;
#X connect 54 0 35 0;
#X connect 57 0 52 0;
#X connect 59 0 61 0;
#X connect 60 0 59 0;
#X connect 61 0 58 0;
#X connect 65 0 75 0;
#X connect 66 0 69 0;
#X connect 69 0 74 0;
#X connect 69 1 73 0;
#X connect 70 0 51 0;
#X connect 70 0 51 1;
#X connect 71 0 70 1;
#X connect 72 0 71 0;
#X connect 73 0 77 0;
#X connect 74 0 65 0;
#X connect 75 0 77 0;
#X connect 76 0 70 0;
#X connect 78 0 72 0;
#X connect 82 0 84 0;
#X connect 82 0 10 0;
#X connect 82 1 84 1;
#X connect 82 1 10 0;
#X connect 82 2 81 0;
#X connect 83 0 86 0;
#X connect 83 1 149 0;
#X connect 85 0 82 0;
#X connect 86 0 82 0;
#X connect 88 0 90 0;
#X connect 88 0 10 0;
#X connect 88 1 90 1;
#X connect 88 1 10 0;
#X connect 88 2 87 0;
#X connect 89 0 92 0;
#X connect 89 1 153 0;
#X connect 91 0 88 0;
#X connect 92 0 88 0;
#X connect 94 0 96 0;
#X connect 94 0 10 0;
#X connect 94 1 96 1;
#X connect 94 1 10 0;
#X connect 94 2 93 0;
#X connect 95 0 98 0;
#X connect 95 1 151 0;
#X connect 97 0 94 0;
#X connect 98 0 94 0;
#X connect 100 0 102 0;
#X connect 100 0 10 0;
#X connect 100 1 102 1;
#X connect 100 1 10 0;
#X connect 100 2 99 0;
#X connect 101 0 104 0;
#X connect 101 1 150 0;
#X connect 103 0 100 0;
#X connect 104 0 100 0;
#X connect 106 0 108 0;
#X connect 106 1 108 1;
#X connect 106 2 105 0;
#X connect 107 0 110 0;
#X connect 107 1 152 0;
#X connect 109 0 106 0;
#X connect 110 0 106 0;
#X connect 111 0 107 0;
#X connect 113 0 115 0;
#X connect 113 0 10 0;
#X connect 113 1 115 1;
#X connect 113 1 10 0;
#X connect 113 2 112 0;
#X connect 114 0 117 0;
#X connect 114 1 130 0;
#X connect 116 0 113 0;
#X connect 117 0 113 0;
#X connect 119 0 121 0;
#X connect 119 0 10 0;
#X connect 119 1 121 1;
#X connect 119 1 10 0;
#X connect 119 2 118 0;
#X connect 120 0 123 0;
#X connect 120 1 132 0;
#X connect 122 0 119 0;
#X connect 123 0 119 0;
#X connect 125 0 127 0;
#X connect 125 0 10 0;
#X connect 125 1 127 1;
#X connect 125 1 10 0;
#X connect 125 2 124 0;
#X connect 126 0 129 0;
#X connect 126 1 131 0;
#X connect 128 0 125 0;
#X connect 129 0 125 0;
#X connect 130 0 113 0;
#X connect 131 0 125 0;
#X connect 132 0 119 0;
#X connect 133 0 134 0;
#X connect 134 0 114 0;
#X connect 135 0 143 0;
#X connect 136 0 144 0;
#X connect 137 0 145 0;
#X connect 138 0 146 0;
#X connect 139 0 147 0;
#X connect 140 0 148 0;
#X connect 141 0 142 0;
#X connect 142 0 0 0;
#X connect 142 0 50 0;
#X connect 143 0 126 0;
#X connect 144 0 120 0;
#X connect 145 0 83 0;
#X connect 146 0 101 0;
#X connect 147 0 95 0;
#X connect 148 0 89 0;
#X connect 149 0 82 0;
#X connect 150 0 100 0;
#X connect 151 0 94 0;
#X connect 152 0 106 0;
#X connect 153 0 88 0;
